<svg width="28" height="21" viewBox="0 0 28 21" fill="none" xmlns="http://www.w3.org/2000/svg">
<path d="M26.5698 11.6611H1.1851C0.548173 11.6611 0.03125 11.1207 0.03125 10.4548C0.03125 9.78895 0.548173 9.24854 1.1851 9.24854H26.5698C27.2068 9.24854 27.7237 9.78895 27.7237 10.4548C27.7237 11.1207 27.2068 11.6611 26.5698 11.6611Z" fill="#3C3C3B"/>
<path d="M26.5698 2.4126H1.1851C0.548173 2.4126 0.03125 1.87218 0.03125 1.2063C0.03125 0.54042 0.548173 0 1.1851 0H26.5698C27.2068 0 27.7237 0.54042 27.7237 1.2063C27.7237 1.87218 27.2068 2.4126 26.5698 2.4126Z" fill="#3C3C3B"/>
<path d="M26.5698 20.9092H1.1851C0.548173 20.9092 0.03125 20.3688 0.03125 19.7029C0.03125 19.037 0.548173 18.4966 1.1851 18.4966H26.5698C27.2068 18.4966 27.7237 19.037 27.7237 19.7029C27.7237 20.3688 27.2068 20.9092 26.5698 20.9092Z" fill="#3C3C3B"/>
</svg>
