<svg width="24" height="24" viewBox="0 0 24 24" fill="none" xmlns="http://www.w3.org/2000/svg">
<path d="M11.9035 15.5041C12.6715 15.5041 13.3915 15.5521 13.3915 15.5521C13.3915 15.5521 14.4475 15.6961 14.7355 16.9921C14.7835 17.1841 14.7835 17.3761 14.7835 17.5681V22.1761C14.7835 22.1761 14.7835 23.0401 15.1675 23.1841C15.4555 23.3281 17.4715 23.2321 18.3355 23.1841C18.7195 23.1841 19.1035 23.0401 19.3915 22.7521C19.7275 22.4641 20.0635 21.9841 20.0635 21.1681V14.4961C20.0635 14.4961 19.9675 12.9601 20.7835 13.2001C20.7835 13.2001 22.5595 13.0561 22.2235 11.5681C22.1275 11.1841 21.9355 10.8481 21.6955 10.5601L13.1035 1.44007C13.1035 1.44007 12.6235 0.67207 11.8555 0.76807" stroke="#EE2A7B" stroke-miterlimit="10" stroke-linecap="round" stroke-linejoin="round"/>
<path d="M12.0967 15.5041C11.3287 15.5041 10.6087 15.5521 10.6087 15.5521C10.6087 15.5521 9.55268 15.6961 9.26468 16.9921C9.21668 17.1841 9.21668 17.3761 9.21668 17.5681V22.1761C9.21668 22.1761 9.21668 23.0401 8.83268 23.1841C8.54468 23.3281 6.52868 23.2321 5.66468 23.1841C5.28068 23.1841 4.89668 23.0401 4.60868 22.7521C4.27268 22.4641 3.93668 21.9841 3.93668 21.1681V14.4961C3.93668 14.4961 4.03268 12.9601 3.21668 13.2001C3.21668 13.2001 1.44068 13.0561 1.77668 11.5681C1.87268 11.1841 2.06468 10.8481 2.30468 10.5601L10.8967 1.44007C10.8967 1.44007 11.3767 0.67207 12.1447 0.76807" stroke="#EE2A7B" stroke-miterlimit="10" stroke-linecap="round" stroke-linejoin="round"/>
</svg>
