<svg width="24" height="24" viewBox="0 0 24 24" fill="none" xmlns="http://www.w3.org/2000/svg">
<path d="M12.0944 23.232C14.9744 23.232 17.7104 23.184 17.7104 23.184C17.7104 23.184 20.5904 23.232 21.0704 20.688C21.0704 20.688 21.9824 16.176 18.8144 13.2C18.4304 12.864 17.7584 12.48 17.2784 12.48C16.8464 12.48 16.3664 12.624 15.9824 12.864C15.9824 12.864 13.5344 14.208 11.1824 13.872C9.83845 13.68 8.83045 13.248 8.01445 12.864C7.58245 12.624 7.15044 12.48 6.71844 12.48C6.23844 12.48 5.56645 12.864 5.18245 13.2C2.01445 16.176 2.92644 20.688 2.92644 20.688C3.40644 23.28 6.28645 23.184 6.28645 23.184C6.28645 23.184 9.02245 23.232 11.9024 23.232" stroke="#505050" stroke-miterlimit="10" stroke-linecap="round" stroke-linejoin="round"/>
<path d="M11.9057 11.7602C15.1133 11.7602 17.7137 9.28883 17.7137 6.24021C17.7137 3.1916 15.1133 0.720215 11.9057 0.720215C8.69799 0.720215 6.09766 3.1916 6.09766 6.24021C6.09766 9.28883 8.69799 11.7602 11.9057 11.7602Z" stroke="#505050" stroke-miterlimit="10" stroke-linecap="round" stroke-linejoin="round"/>
</svg>
