<svg width="22" height="22" viewBox="0 0 22 22" fill="none" xmlns="http://www.w3.org/2000/svg">
<path d="M17.1609 13.8159C17.9142 13.8159 18.5249 13.2052 18.5249 12.4519C18.5249 11.6986 17.9142 11.0879 17.1609 11.0879C16.4076 11.0879 15.7969 11.6986 15.7969 12.4519C15.7969 13.2052 16.4076 13.8159 17.1609 13.8159Z" fill="#505050"/>
<path d="M19.0061 20.5038H2.99009C1.75809 20.5038 0.746094 19.4918 0.746094 18.2598V4.83984H1.36209H19.0501C20.2821 4.83984 21.2941 5.85184 21.2941 7.08384V18.2598C21.2501 19.4918 20.2381 20.5038 19.0061 20.5038Z" stroke="#505050" stroke-miterlimit="10" stroke-linecap="round" stroke-linejoin="round"/>
<path d="M18.4341 4.83982V3.69582C18.4341 2.59582 17.5101 1.71582 16.3661 1.71582H4.00209C2.19809 1.71582 0.746094 3.12382 0.746094 4.83982" stroke="#505050" stroke-miterlimit="10" stroke-linecap="round" stroke-linejoin="round"/>
</svg>
