<svg width="21" height="21" viewBox="0 0 21 21" fill="none" xmlns="http://www.w3.org/2000/svg">
<path d="M19.7272 19.0449L14.7968 13.8692C16.0645 12.3481 16.7591 10.4344 16.7591 8.44204C16.7591 3.78717 13.0069 0 8.39516 0C3.78337 0 0.03125 3.78717 0.03125 8.44204C0.03125 13.0969 3.78337 16.8841 8.39516 16.8841C10.1265 16.8841 11.7764 16.357 13.187 15.3564L18.1547 20.5714C18.3624 20.7891 18.6417 20.9091 18.941 20.9091C19.2242 20.9091 19.493 20.8001 19.697 20.6019C20.1304 20.1809 20.1443 19.4828 19.7272 19.0449ZM8.39516 2.20227C11.804 2.20227 14.5772 5.00136 14.5772 8.44204C14.5772 11.8827 11.804 14.6818 8.39516 14.6818C4.98632 14.6818 2.21314 11.8827 2.21314 8.44204C2.21314 5.00136 4.98632 2.20227 8.39516 2.20227Z" fill="#3C3C3B"/>
</svg>
